<svg xmlns="http://www.w3.org/2000/svg" viewBox="0 0 320 320"><defs><radialGradient id="s"><stop stop-color="#fafafa"/><stop offset=".62" stop-color="#b8c1c7"/><stop offset="1" stop-color="#68727a"/></radialGradient></defs><rect width="320" height="320" fill="#f5f7fa"/><circle cx="160" cy="160" r="126" fill="url(#s)" stroke="#626b72" stroke-width="8"/><circle cx="160" cy="160" r="105" fill="none" stroke="#f5f5f5" stroke-width="5"/><path d="M170 83c-35 8-59 37-57 73 2 36 25 62 58 75 9-13 11-26 7-39 18-6 29-18 34-37-13-3-22-9-28-18 7-18 2-36-14-54z" fill="#929da4" stroke="#59636a" stroke-width="4"/><path d="M128 136c12-10 26-12 42-6m-35 35c13 8 28 9 44 2m-30 30c13 3 24 2 34-4" fill="none" stroke="#566169" stroke-width="5" stroke-linecap="round"/><text x="160" y="55" text-anchor="middle" font-family="Georgia" font-size="18" fill="#424a50">LIBERTY</text><text x="160" y="282" text-anchor="middle" font-family="Georgia" font-size="18" fill="#424a50">2026</text></svg>